<svg width="24" height="25" viewBox="0 0 24 25" fill="none" xmlns="http://www.w3.org/2000/svg">
<path d="M19 7.76514H16V6.76514C16 5.70427 15.5786 4.68686 14.8284 3.93671C14.0783 3.18656 13.0609 2.76514 12 2.76514C10.9391 2.76514 9.92172 3.18656 9.17157 3.93671C8.42143 4.68686 8 5.70427 8 6.76514V7.76514H5C4.73478 7.76514 4.48043 7.87049 4.29289 8.05803C4.10536 8.24557 4 8.49992 4 8.76514V19.7651C4 20.5608 4.31607 21.3238 4.87868 21.8865C5.44129 22.4491 6.20435 22.7651 7 22.7651H17C17.7956 22.7651 18.5587 22.4491 19.1213 21.8865C19.6839 21.3238 20 20.5608 20 19.7651V8.76514C20 8.49992 19.8946 8.24557 19.7071 8.05803C19.5196 7.87049 19.2652 7.76514 19 7.76514ZM10 6.76514C10 6.2347 10.2107 5.726 10.5858 5.35092C10.9609 4.97585 11.4696 4.76514 12 4.76514C12.5304 4.76514 13.0391 4.97585 13.4142 5.35092C13.7893 5.726 14 6.2347 14 6.76514V7.76514H10V6.76514ZM18 19.7651C18 20.0304 17.8946 20.2847 17.7071 20.4722C17.5196 20.6598 17.2652 20.7651 17 20.7651H7C6.73478 20.7651 6.48043 20.6598 6.29289 20.4722C6.10536 20.2847 6 20.0304 6 19.7651V9.76514H8V10.7651C8 11.0304 8.10536 11.2847 8.29289 11.4722C8.48043 11.6598 8.73478 11.7651 9 11.7651C9.26522 11.7651 9.51957 11.6598 9.70711 11.4722C9.89464 11.2847 10 11.0304 10 10.7651V9.76514H14V10.7651C14 11.0304 14.1054 11.2847 14.2929 11.4722C14.4804 11.6598 14.7348 11.7651 15 11.7651C15.2652 11.7651 15.5196 11.6598 15.7071 11.4722C15.8946 11.2847 16 11.0304 16 10.7651V9.76514H18V19.7651Z" fill="#0D141C"/>
</svg>
