<svg width="24" height="25" viewBox="0 0 24 25" fill="none" xmlns="http://www.w3.org/2000/svg">
<path d="M21.07 17.5953L19 15.4753C18.5547 15.0521 17.9931 14.7716 17.3872 14.6701C16.7813 14.5685 16.1589 14.6504 15.6 14.9053L14.7 14.0053C15.7605 12.5882 16.2449 10.822 16.0555 9.06216C15.8662 7.30232 15.0172 5.67955 13.6794 4.52052C12.3417 3.3615 10.6145 2.75228 8.84565 2.81551C7.07678 2.87873 5.39754 3.60971 4.14596 4.86129C2.89438 6.11287 2.1634 7.79212 2.10017 9.56099C2.03695 11.3299 2.64617 13.057 3.80519 14.3948C4.96421 15.7325 6.58699 16.5815 8.34683 16.7709C10.1067 16.9602 11.8729 16.4759 13.29 15.4153L14.18 16.3053C13.8951 16.865 13.793 17.4999 13.8881 18.1206C13.9831 18.7414 14.2706 19.3166 14.71 19.7653L16.83 21.8853C17.3925 22.4471 18.155 22.7627 18.95 22.7627C19.745 22.7627 20.5075 22.4471 21.07 21.8853C21.3557 21.6059 21.5828 21.2723 21.7378 20.9039C21.8928 20.5356 21.9726 20.14 21.9726 19.7403C21.9726 19.3407 21.8928 18.9451 21.7378 18.5767C21.5828 18.2084 21.3557 17.8747 21.07 17.5953ZM12.59 13.3553C11.8902 14.0533 10.9993 14.5283 10.0297 14.7202C9.06017 14.9121 8.05549 14.8123 7.14259 14.4335C6.2297 14.0547 5.44955 13.4138 4.9007 12.5919C4.35185 11.7699 4.05893 10.8037 4.05893 9.81532C4.05893 8.82695 4.35185 7.86076 4.9007 7.03878C5.44955 6.21681 6.2297 5.57594 7.14259 5.19713C8.05549 4.81833 9.06017 4.71857 10.0297 4.91047C10.9993 5.10238 11.8902 5.57732 12.59 6.27532C13.0556 6.73978 13.4251 7.29153 13.6771 7.89899C13.9292 8.50644 14.0589 9.15765 14.0589 9.81532C14.0589 10.473 13.9292 11.1242 13.6771 11.7317C13.4251 12.3391 13.0556 12.8909 12.59 13.3553ZM19.66 20.4253C19.567 20.5191 19.4564 20.5934 19.3346 20.6442C19.2127 20.695 19.082 20.7211 18.95 20.7211C18.818 20.7211 18.6873 20.695 18.5654 20.6442C18.4436 20.5934 18.333 20.5191 18.24 20.4253L16.12 18.3053C16.0263 18.2124 15.9519 18.1018 15.9011 17.9799C15.8503 17.858 15.8242 17.7273 15.8242 17.5953C15.8242 17.4633 15.8503 17.3326 15.9011 17.2107C15.9519 17.0889 16.0263 16.9783 16.12 16.8853C16.213 16.7916 16.3236 16.7172 16.4454 16.6664C16.5673 16.6157 16.698 16.5895 16.83 16.5895C16.962 16.5895 17.0927 16.6157 17.2146 16.6664C17.3364 16.7172 17.447 16.7916 17.54 16.8853L19.66 19.0053C19.7537 19.0983 19.8281 19.2089 19.8789 19.3307C19.9296 19.4526 19.9558 19.5833 19.9558 19.7153C19.9558 19.8473 19.9296 19.978 19.8789 20.0999C19.8281 20.2218 19.7537 20.3324 19.66 20.4253Z" fill="#0D141C"/>
</svg>
