<svg width="500" height="551" viewBox="0 0 500 551" fill="none" xmlns="http://www.w3.org/2000/svg">
<g filter="url(#filter0_d_1_350)">
<rect x="50" y="46.9412" width="398.933" height="450" rx="20" fill="#E1F0DA" fill-opacity="0.2"/>
<path opacity="0.6" d="M418 46.9412C429.201 46.9412 434.801 46.9412 439.079 49.121C442.843 51.0385 445.902 54.0981 447.82 57.8614C450 62.1396 450 67.7401 450 78.9412V192.561C450 207.187 450 214.5 444.544 220.28C440.603 224.455 431.768 227.284 426.135 226.175C418.337 224.639 415.074 220.068 408.55 210.925C402.05 201.816 396.594 191.925 392.402 181.473C387.093 168.239 381.811 152.178 368.392 148.252C357.347 145.04 346.223 151.931 335.845 156.955C325.441 161.98 311.221 164.533 303.992 155.363C291.16 139.054 317.917 111.818 305.219 95.4001C297.215 85.0493 280.889 89.3049 269.23 83.7864C257.029 77.9848 247.432 61.4734 251.469 48.3592C251.736 47.4932 252.561 46.9412 253.467 46.9412H260.478H294.031H347.615H418Z" fill="#E1F0DA"/>
<path opacity="0.6" d="M50 464.94C50 476.141 50 481.742 52.1799 486.02C54.0973 489.783 57.1569 492.843 60.9202 494.76C65.1984 496.94 70.799 496.94 82 496.94H190.425C205.267 496.94 212.688 496.94 218.42 491.694C222.59 487.879 225.56 479.365 224.668 473.784C223.441 466.111 218.929 462.527 209.904 455.359C200.628 447.992 190.473 441.846 179.7 437.197C166.942 431.69 151.457 426.211 147.672 412.292C144.575 400.836 151.219 389.297 156.063 378.533C160.907 367.741 163.369 352.992 154.528 345.493C138.805 332.183 112.547 359.938 96.7186 346.766C86.7396 338.465 90.8424 321.53 85.522 309.437C79.9425 296.812 64.0883 286.875 51.4601 290.984C50.5622 291.276 50 292.142 50 293.087V300.359V335.161L50 390.741V464.94Z" fill="#E1F0DA"/>
</g>
<defs>
<filter id="filter0_d_1_350" x="0" y="0.941162" width="500" height="550" filterUnits="userSpaceOnUse" color-interpolation-filters="sRGB">
<feFlood flood-opacity="0" result="BackgroundImageFix"/>
<feColorMatrix in="SourceAlpha" type="matrix" values="0 0 0 0 0 0 0 0 0 0 0 0 0 0 0 0 0 0 127 0" result="hardAlpha"/>
<feOffset dy="4"/>
<feGaussianBlur stdDeviation="25"/>
<feComposite in2="hardAlpha" operator="out"/>
<feColorMatrix type="matrix" values="0 0 0 0 0 0 0 0 0 0 0 0 0 0 0 0 0 0 0.1 0"/>
<feBlend mode="normal" in2="BackgroundImageFix" result="effect1_dropShadow_1_350"/>
<feBlend mode="normal" in="SourceGraphic" in2="effect1_dropShadow_1_350" result="shape"/>
</filter>
</defs>
</svg>
